<?xml version="1.0" encoding="UTF-8"?>
<svg id="Layer_1" data-name="Layer 1" xmlns="http://www.w3.org/2000/svg" viewBox="0 0 55 54.69">
  <defs>
    <style>
      .cls-1 {
        fill: #fff;
      }
    </style>
  </defs>
  <path class="cls-1" d="M28.85,0l2.25.21c12.29,1.58,22.11,11.42,23.7,23.7l.21,2.25v2.68l-.21,2.25c-1.04,8.04-5.69,15.28-12.49,19.62-3.18,2.03-6.77,3.38-10.5,3.99v-19.25h6.39l1.24-7.94h-7.63v-5.62c.15-2.31,1.69-3.71,3.97-3.83h3.97s0-6.77,0-6.77c-.79-.09-1.57-.23-2.35-.31-3.52-.37-7.23-.51-10.23,1.62-2.84,2.01-3.84,5.24-3.94,8.6v6.31s-6.98,0-6.98,0v7.94h6.98v19.25c-3.73-.6-7.32-1.96-10.5-3.99C5.91,46.36,1.26,39.13.22,31.09L.01,28.84c.03-.89-.04-1.79,0-2.68C.58,12.18,12.2.58,26.17,0h2.68Z"/>
</svg>