<?xml version="1.0" encoding="UTF-8"?>
<svg id="Layer_1" data-name="Layer 1" xmlns="http://www.w3.org/2000/svg" viewBox="0 0 55 54.69">
  <defs>
    <style>
      .cls-1 {
        fill: #fff;
      }
    </style>
  </defs>
  <path class="cls-1" d="M41.58,0c.05.08.17.05.25.05,7.9.08,12.76,4.72,13.01,12.64v29.44c0,.12-.04.24-.05.36-.35,7.02-4.57,11.49-11.59,12.1-9.85.21-19.72.03-29.57.09-1.2-.06-2.4-.12-3.58-.34-5.33-.95-8.95-4.94-9.69-10.27l-.19-2.11V13.21c.04-3.35.8-6.65,3.1-9.18C5.78,1.25,9.09.14,12.78,0h28.8ZM25.07,7.03c-5.58.04-11.58-.47-15.36,4.41-2.15,2.76-2.35,5.85-2.44,9.22-.13,4.43-.13,8.91,0,13.35.11,3.71.38,7.04,3,9.89,2.99,3.25,6.6,3.55,10.78,3.66,4.24.12,8.65.12,12.89,0,4.29-.12,7.89-.43,10.92-3.8,2.85-3.18,2.83-7.09,2.91-11.12.07-3.53.07-7.08,0-10.61-.08-3.97-.05-7.83-2.8-11.01-3.85-4.45-9.44-3.91-14.81-3.96-1.69-.02-3.39-.05-5.09-.03Z"/>
  <g>
    <path class="cls-1" d="M22.07,10.68c3.51-.07,7.05-.03,10.56.03,3.33.07,7.02-.16,9.46,2.53,1.98,2.18,1.97,5.02,2.05,7.79.12,4.16.12,8.41,0,12.57-.11,3.97-.35,7.9-4.6,9.57-2.87,1.13-7.72.79-10.87.8-3.3,0-6.88.15-10.16-.14-5.36-.47-7.31-3.49-7.59-8.59-.23-4.22-.13-8.7-.04-12.94.07-3.71-.18-7.71,3.22-10.09,2.2-1.54,5.38-1.49,7.98-1.54ZM40.78,16.49c0-1.34-1.08-2.42-2.42-2.42s-2.42,1.08-2.42,2.42,1.08,2.42,2.42,2.42,2.42-1.08,2.42-2.42ZM37.93,27.33c0-5.75-4.66-10.42-10.42-10.42s-10.42,4.66-10.42,10.42,4.66,10.42,10.42,10.42,10.42-4.66,10.42-10.42Z"/>
    <circle class="cls-1" cx="27.51" cy="27.33" r="6.79"/>
  </g>
</svg>