<?xml version="1.0" encoding="UTF-8"?>
<svg id="Layer_1" data-name="Layer 1" xmlns="http://www.w3.org/2000/svg" viewBox="0 0 55 54.69">
  <defs>
    <style>
      .cls-1 {
        fill: #fff;
      }
    </style>
  </defs>
  <path class="cls-1" d="M51.56,51.41c-2.76,2.76-5.99,3.16-9.74,3.28H13.45c-3.02-.12-5.9-.24-8.47-2.01C1.06,49.99.31,46.28.16,41.76V13.3c.1-3.45.34-6.63,2.69-9.36C5.64.7,8.97.14,13.08,0h28.46c3.45.1,6.63.34,9.36,2.69,3.25,2.79,3.8,6.13,3.94,10.24v28.46c-.11,3.82-.46,7.2-3.28,10.02ZM33.29,10.48h-4.03l-.1.51v23.18c-.49,4.62-6.93,5.8-9.15,1.83s1.48-8.42,5.73-7.16v-5.84h-3.01c-1.45,0-3.86,1.24-5,2.13-5.17,4.08-5.52,11.99-.51,16.36,6.85,5.97,17.27,1.51,17.8-7.5v-12.19c.07-.08,1.22.7,1.38.79,1.56.85,3.23,1.41,5.01,1.62v-6.95c-3.15.07-6.22-2.08-7.43-4.94-.13-.3-.52-1.78-.68-1.82Z"/>
</svg>