<?xml version="1.0" encoding="UTF-8"?>
<svg id="Layer_1" data-name="Layer 1" xmlns="http://www.w3.org/2000/svg" viewBox="0 0 55 54.69">
  <defs>
    <style>
      .cls-1 {
        fill: #fff;
      }
    </style>
  </defs>
  <path class="cls-1" d="M13.83.09c9.04-.27,18.13.17,27.17-.02,4.32.12,7.77.57,10.77,3.94,2.55,2.86,2.79,5.65,2.92,9.33.33,9.1-.13,18.34.06,27.46-.11,4.26-.53,7.72-3.83,10.72-2.59,2.36-5.19,2.86-8.61,3.04-9.58-.11-19.32.35-28.88,0-3.79-.14-6.62-.44-9.49-3.14-3.41-3.2-3.54-6.58-3.66-11-.24-8.59.06-17.22-.06-25.82.1-4.13.23-7.56,3.15-10.75C6.32.62,9.64.22,13.83.09ZM11.21,42.74h5.11l9.46-10.77,8.26,10.77h10.42l-13.35-17.76,11.38-13.07c-.23.01-.45.04-.69.03-1.28-.05-2.84-.17-4.1-.06-.15.01-.31.03-.44.11l-8.53,9.79c-.1.02-.65-.74-.76-.88-2.3-2.94-4.45-6.01-6.77-8.93l-.4-.09c-3.23.15-6.64-.19-9.85,0-.16,0-.31.05-.46.06l12.85,16.83-12.14,13.97Z"/>
  <polygon class="cls-1" points="38.4 39.68 35.47 39.68 16.52 14.84 19.66 14.84 38.4 39.68"/>
</svg>